<?xml version="1.0" encoding="utf-8"?><svg viewBox="0 0 103 89" xmlns="http://www.w3.org/2000/svg" xmlns:xlink="http://www.w3.org/1999/xlink"><style>:root>svg{display:none}:root>svg:target{display:block}</style><svg fill="none" viewBox="0 0 10 7" id="arrow-down" xmlns="http://www.w3.org/2000/svg"><path d="M4.91 6.402L1.191 2.684c-.273-.274-.273-.684 0-.93l.602-.629c.273-.246.684-.246.93 0l2.625 2.652L8 1.125c.246-.246.656-.246.93 0l.601.629c.274.246.274.656 0 .93L5.812 6.402a.644.644 0 01-.902 0z" fill="#00215B"/></svg><svg fill="none" viewBox="0 0 37 19" id="arrow-red" xmlns="http://www.w3.org/2000/svg"><path d="M26 1.5l9 8.006L26 18" stroke="#D2153D" stroke-width="2" stroke-miterlimit="10"/><path stroke="#D2153D" stroke-width="3" d="M0 9.5h34"/></svg><svg fill="none" viewBox="0 0 13 7" id="arrow-right" xmlns="http://www.w3.org/2000/svg"><path d="M8.934 2.656V1.398c0-.574.71-.875 1.12-.464l2.352 2.378a.599.599 0 010 .903l-2.351 2.379c-.41.41-1.121.11-1.121-.465V4.844H.704a.316.316 0 01-.329-.328V2.984c0-.164.137-.328.328-.328h8.23z" fill="#fff"/></svg><svg fill="none" viewBox="0 0 18 20" id="arrow-triangle" xmlns="http://www.w3.org/2000/svg"><path d="M16.825 17.436a1.5 1.5 0 01-2.25 1.3l-12.75-7.362a1.5 1.5 0 010-2.598l12.75-7.36a1.5 1.5 0 012.25 1.298v14.722z" stroke="#000"/></svg><svg fill="none" viewBox="0 0 45 42" id="chat" xmlns="http://www.w3.org/2000/svg"><path fill-rule="evenodd" clip-rule="evenodd" d="M0 19.688C0 8.92 9.897 0 22.412 0 34.955 0 45 8.94 45 19.688c0 10.74-10.038 19.687-22.588 19.687-2.907 0-5.725-.479-8.387-1.424A14.578 14.578 0 013.955 42c-1.174 0-1.759-1.417-.932-2.24a7.958 7.958 0 002.118-7.52C1.823 28.717 0 24.273 0 19.686zM14.171 35.2a22.27 22.27 0 008.241 1.566c11.001 0 19.969-7.671 19.969-17.08 0-9.408-8.968-17.08-19.969-17.08-10.904 0-19.793 7.672-19.793 17.08 0 4.011 1.665 7.91 4.656 10.976.152.156.263.347.322.555a10.571 10.571 0 01-.803 7.812 11.912 11.912 0 005.917-3.496c.37-.402.951-.535 1.46-.333z" fill="#fff"/><path fill-rule="evenodd" clip-rule="evenodd" d="M8 20c0-2.206 1.794-4 4-4s4 1.794 4 4-1.794 4-4 4-4-1.794-4-4zm2.667 0c0 .735.598 1.333 1.333 1.333s1.333-.598 1.333-1.333-.598-1.333-1.333-1.333-1.333.598-1.333 1.333zM18 20c0-2.206 1.794-4 4-4s4 1.794 4 4-1.794 4-4 4-4-1.794-4-4zm2.667 0c0 .735.598 1.333 1.333 1.333s1.333-.598 1.333-1.333-.598-1.333-1.333-1.333-1.333.598-1.333 1.333zM29 20c0-2.206 1.794-4 4-4s4 1.794 4 4-1.794 4-4 4-4-1.794-4-4zm2.667 0c0 .735.598 1.333 1.333 1.333s1.333-.598 1.333-1.333-.598-1.333-1.333-1.333-1.333.598-1.333 1.333z" fill="#fff"/></svg><svg fill="none" viewBox="0 0 61 65" id="engineer" xmlns="http://www.w3.org/2000/svg"><path fill-rule="evenodd" clip-rule="evenodd" d="M60.125 30.728l-2.723-1.092V27.9c.038-10.658-7.174-20.168-17.963-23.685V1.768c0-.727-.632-1.316-1.41-1.316h-15.1c-.778 0-1.41.59-1.41 1.316v2.46C10.729 7.745 3.518 17.255 3.556 27.913v1.75L.861 30.728C.339 30.934 0 31.412 0 31.94v6.908c0 .726.632 1.316 1.411 1.316h1.835v2.632c0 .726.631 1.315 1.41 1.315h5.066a19.187 19.187 0 002.103 4.711L8.24 52.163a1.253 1.253 0 000 1.856l5.997 5.592c.55.51 1.439.51 1.99 0l3.583-3.342a22.186 22.186 0 005.038 1.96v4.724c0 .726.632 1.316 1.411 1.316h8.466c.78 0 1.411-.59 1.411-1.316V58.23a22.173 22.173 0 005.052-1.96l3.584 3.342c.55.51 1.44.51 1.99 0l5.997-5.592a1.253 1.253 0 000-1.856l-3.585-3.342a19.188 19.188 0 002.103-4.71h5.066c.779 0 1.41-.59 1.41-1.316v-2.632h1.835c.78 0 1.411-.59 1.411-1.316V31.94c-.003-.531-.348-1.009-.875-1.21zM24.313 3.097h12.304v21.987H24.341l-.028-21.987zm25.935 38.382h4.699l-.014-1.316H42.022c-.644 4.953-4.83 8.856-10.142 9.457-6.375.722-12.17-3.512-12.944-9.457H6.04v1.316h4.698c.677-.015 1.268.422 1.411 1.039a16.716 16.716 0 002.625 5.763 1.25 1.25 0 01-.184 1.645l-3.372 3.145 3.993 3.724 3.373-3.145a1.49 1.49 0 011.764-.171 19.249 19.249 0 006.208 2.408c.662.133 1.13.684 1.115 1.316v4.473h5.644v-4.434c-.015-.631.453-1.183 1.115-1.316a19.315 19.315 0 006.208-2.407 1.488 1.488 0 011.764.17l3.373 3.145 4.035-3.737-3.372-3.145a1.25 1.25 0 01-.183-1.644 16.681 16.681 0 002.582-5.79c.142-.617.734-1.054 1.41-1.04zm-28.433-1.316h17.37c-.776 4.476-5.297 7.519-10.097 6.795-3.745-.565-6.681-3.303-7.287-6.795h.014zM2.808 37.53h55.384v-4.697l-2.723-1.092c-.523-.206-.861-.683-.861-1.21v-2.633c.04-9.2-5.967-17.488-15.14-20.882V26.4c0 .726-.633 1.315-1.412 1.315H22.93c-.78 0-1.411-.59-1.411-1.315V7.017C12.36 10.412 6.36 18.683 6.392 27.873v2.632c0 .528-.339 1.005-.86 1.21l-2.724 1.092v4.724z" fill="#D2153D"/></svg><svg fill="none" viewBox="0 0 9 15" id="facebook" xmlns="http://www.w3.org/2000/svg"><path d="M7.629 8.625h-2.05v6.125H2.843V8.625H.602V6.109h2.242V4.168C2.844 1.98 4.156.75 6.152.75c.957 0 1.97.191 1.97.191v2.16H7c-1.094 0-1.422.657-1.422 1.368v1.64h2.434l-.383 2.516z" fill="#001ED3"/></svg><svg fill="none" viewBox="0 0 87 74" id="helmet" xmlns="http://www.w3.org/2000/svg"><path d="M2 60.054l18 11.5h49.5l15.5-11.5m-83 0v-10.5l4.5-2M2 60.054a464.26 464.26 0 015.5-.898m77.5.898v-9c-1.05-3.046-2.385-3.742-6-3.5m6 12.5c-2.131-.338-4.115-.655-6-.95M6.5 47.554l1 11.602m-1-11.602c.003-18.987 4.126-27.81 18-36.5l.017.5M7.5 59.156c5.668-.89 10.935-1.594 16-2.11M25 26.055c-.869 1.312-1.116 2.173-1 4l-.5 26.993M25 26.054c2.394-3.988 4.529-6.628 7-8.32m-7 8.32l-.483-14.5M23.5 57.047c13.196-1.344 25.021-1.407 39-.114m0 0c-.158-11.02.325-17.608-1.059-27.88m1.059 27.88c5.52.51 10.507 1.233 16.5 2.171m-17.559-30.05c-.13-.965-.276-1.963-.441-3-2.114-3.541-4.073-5.967-6.5-7.64m6.941 10.64v-18.5m-6.941-4.5c.319-1.752 2.5-2.5 3-2.5s3.169.777 3.941 2.5v4.5m-6.941-4.5v12.36m0-12.36h-6m6 12.36c-1.699-1.17-3.628-1.973-6-2.529m0-9.831v9.831m0-9.831c-.68-3.596-2.064-4.223-5.5-4-3.011-.274-4.296.418-5.5 4v9.456m11 .375c-1.607-.377-3.419-.641-5.5-.831-2.075.009-3.883.143-5.5.456m0 0c-2.094.405-3.87 1.108-5.5 2.224m5-11.68c-2.139-.46-3.266-.326-5 1.5m0 0v10.18m0-10.18c-.957-2.345-1.907-2.978-4-3.5-2.527 1.167-3.078 1.972-3.5 3.5l.017 4m54.483 36v11.55m0-11.55v-12.5c-2.85-11.09-5.307-16.985-17.559-24.5M29 37.054v15.5" stroke="#D2153D" stroke-width="3"/></svg><svg fill="none" viewBox="0 0 13 13" id="linkedin" xmlns="http://www.w3.org/2000/svg"><path d="M2.734 13H.191V4.824h2.543V13zM1.45 3.73C.656 3.73 0 3.047 0 2.227 0 1.434.656.777 1.45.777c.82 0 1.476.657 1.476 1.45 0 .82-.656 1.503-1.477 1.503zM12.223 13H9.707V9.035c0-.957-.027-2.16-1.34-2.16-1.312 0-1.504 1.012-1.504 2.078V13H4.32V4.824h2.434v1.121h.027c.356-.629 1.176-1.312 2.407-1.312 2.57 0 3.062 1.695 3.062 3.883V13h-.027z" fill="#001ED3"/></svg><svg fill="none" viewBox="0 0 103 28" id="logo" xmlns="http://www.w3.org/2000/svg"><g clip-path="url(#jclip0_304_181)"><path d="M2.355 26V4.104h9.18c3.287 0 5.757.85 7.412 2.55 1.677 1.677 2.516 4.51 2.516 8.5 0 3.763-.827 6.517-2.482 8.262C17.349 25.139 14.867 26 11.535 26h-9.18zm4.59-3.536h3.944c1.292 0 2.38-.193 3.264-.578.884-.408 1.541-1.133 1.972-2.176.453-1.065.68-2.584.68-4.556s-.204-3.48-.612-4.522c-.408-1.043-1.043-1.757-1.904-2.142s-1.995-.578-3.4-.578H6.945v14.552zm23.672 3.876c-1.926 0-3.434-.533-4.521-1.598-1.066-1.088-1.599-2.675-1.599-4.76V9.884h4.59v9.996c0 1.088.261 1.881.782 2.38.522.476 1.304.714 2.346.714a4.94 4.94 0 002.176-.476 6.028 6.028 0 001.735-1.19V9.884h4.59V26h-4.25l-.17-1.53c-.68.544-1.485.997-2.414 1.36-.907.34-1.995.51-3.264.51zm19.684 0c-1.202 0-2.346-.09-3.434-.272-1.088-.159-1.961-.363-2.618-.612v-3.808c.793.317 1.688.567 2.686.748.997.159 1.915.238 2.754.238 1.133 0 1.926-.068 2.38-.204.476-.136.714-.442.714-.918 0-.544-.363-.94-1.088-1.19-.703-.25-1.757-.6-3.162-1.054-1.474-.499-2.607-1.1-3.4-1.802-.794-.703-1.19-1.745-1.19-3.128 0-1.541.555-2.72 1.666-3.536 1.133-.839 2.946-1.258 5.44-1.258.997 0 1.938.08 2.822.238.884.136 1.632.306 2.244.51v3.774c-.612-.295-1.315-.51-2.108-.646a11.313 11.313 0 00-2.21-.238c-.975 0-1.757.068-2.346.204-.567.136-.85.43-.85.884 0 .499.306.85.918 1.054.634.204 1.609.51 2.924.918 1.292.385 2.3.805 3.026 1.258.725.453 1.235.997 1.53 1.632.294.612.442 1.383.442 2.312 0 3.264-2.38 4.896-7.14 4.896zm16.22 0c-1.86 0-3.242-.487-4.149-1.462-.884-.975-1.326-2.3-1.326-3.978v-7.48h-2.278V9.884h2.278V6.416l4.59-1.36v4.828h4.08l-.272 3.536h-3.808v7.174c0 .884.204 1.496.612 1.836.408.317 1.043.476 1.904.476.635 0 1.292-.113 1.972-.34v3.162a7.18 7.18 0 01-1.632.442c-.589.113-1.246.17-1.972.17zM72.48 26V9.884h4.25l.204 1.666c.725-.453 1.62-.861 2.686-1.224a15.628 15.628 0 013.196-.782v3.468c-.612.09-1.28.227-2.006.408-.725.181-1.417.385-2.074.612-.657.227-1.213.465-1.666.714V26h-4.59zm20.078.34c-3.015 0-5.225-.725-6.63-2.176-1.406-1.473-2.108-3.547-2.108-6.222 0-2.675.702-4.737 2.108-6.188 1.428-1.473 3.638-2.21 6.63-2.21 3.014 0 5.224.737 6.63 2.21 1.428 1.45 2.142 3.513 2.142 6.188s-.703 4.749-2.108 6.222c-1.406 1.45-3.627 2.176-6.664 2.176zm0-3.91c1.473 0 2.527-.329 3.161-.986.635-.68.953-1.847.953-3.502 0-1.655-.318-2.81-.953-3.468-.634-.68-1.688-1.02-3.161-1.02-1.451 0-2.494.34-3.129 1.02-.634.657-.951 1.813-.951 3.468s.317 2.822.952 3.502c.634.657 1.677.986 3.127.986z" fill="#16213E"/><path fill="#D2153D" d="M56 8H24V5h32z"/><path fill="#001ED3" d="M92 5h9v3h-9z"/></g><defs><clipPath id="jclip0_304_181"><path fill="#fff" d="M0 0h103v28H0z"/></clipPath></defs></svg><svg fill="none" viewBox="0 0 103 28" id="logo-footer" xmlns="http://www.w3.org/2000/svg"><g clip-path="url(#kclip0_2_462)" fill="#fff"><path d="M2.355 26V4.104h9.18c3.287 0 5.757.85 7.412 2.55 1.677 1.677 2.516 4.51 2.516 8.5 0 3.763-.827 6.517-2.482 8.262C17.349 25.139 14.867 26 11.535 26h-9.18zm4.59-3.536h3.944c1.292 0 2.38-.193 3.264-.578.884-.408 1.541-1.133 1.972-2.176.453-1.065.68-2.584.68-4.556s-.204-3.48-.612-4.522c-.408-1.043-1.043-1.757-1.904-2.142s-1.995-.578-3.4-.578H6.945v14.552zm23.672 3.876c-1.926 0-3.434-.533-4.521-1.598-1.066-1.088-1.599-2.675-1.599-4.76V9.884h4.59v9.996c0 1.088.261 1.881.782 2.38.522.476 1.304.714 2.346.714a4.94 4.94 0 002.176-.476 6.028 6.028 0 001.735-1.19V9.884h4.59V26h-4.25l-.17-1.53c-.68.544-1.485.997-2.414 1.36-.907.34-1.995.51-3.264.51zm19.684 0c-1.202 0-2.346-.09-3.434-.272-1.088-.159-1.961-.363-2.618-.612v-3.808c.793.317 1.688.567 2.686.748.997.159 1.915.238 2.754.238 1.133 0 1.926-.068 2.38-.204.476-.136.714-.442.714-.918 0-.544-.363-.94-1.088-1.19-.703-.25-1.757-.6-3.162-1.054-1.474-.499-2.607-1.1-3.4-1.802-.794-.703-1.19-1.745-1.19-3.128 0-1.541.555-2.72 1.666-3.536 1.133-.839 2.946-1.258 5.44-1.258.997 0 1.938.08 2.822.238.884.136 1.632.306 2.244.51v3.774c-.612-.295-1.315-.51-2.108-.646a11.313 11.313 0 00-2.21-.238c-.975 0-1.757.068-2.346.204-.567.136-.85.43-.85.884 0 .499.306.85.918 1.054.634.204 1.609.51 2.924.918 1.292.385 2.3.805 3.026 1.258.725.453 1.235.997 1.53 1.632.294.612.442 1.383.442 2.312 0 3.264-2.38 4.896-7.14 4.896zm16.22 0c-1.86 0-3.242-.487-4.149-1.462-.884-.975-1.326-2.3-1.326-3.978v-7.48h-2.278V9.884h2.278V6.416l4.59-1.36v4.828h4.08l-.272 3.536h-3.808v7.174c0 .884.204 1.496.612 1.836.408.317 1.043.476 1.904.476.635 0 1.292-.113 1.972-.34v3.162a7.18 7.18 0 01-1.632.442c-.589.113-1.246.17-1.972.17zM72.48 26V9.884h4.25l.204 1.666c.725-.453 1.62-.861 2.686-1.224a15.628 15.628 0 013.196-.782v3.468c-.612.09-1.28.227-2.006.408-.725.181-1.417.385-2.074.612-.657.227-1.213.465-1.666.714V26h-4.59zm20.078.34c-3.015 0-5.225-.725-6.63-2.176-1.406-1.473-2.108-3.547-2.108-6.222 0-2.675.702-4.737 2.108-6.188 1.428-1.473 3.638-2.21 6.63-2.21 3.014 0 5.224.737 6.63 2.21 1.428 1.45 2.142 3.513 2.142 6.188s-.703 4.749-2.108 6.222c-1.406 1.45-3.627 2.176-6.664 2.176zm0-3.91c1.473 0 2.527-.329 3.161-.986.635-.68.953-1.847.953-3.502 0-1.655-.318-2.81-.953-3.468-.634-.68-1.688-1.02-3.161-1.02-1.451 0-2.494.34-3.129 1.02-.634.657-.951 1.813-.951 3.468s.317 2.822.952 3.502c.634.657 1.677.986 3.127.986zM56 8H24V5h32zM92 5h9v3h-9z"/></g><defs><clipPath id="kclip0_2_462"><path fill="#fff" d="M0 0h103v28H0z"/></clipPath></defs></svg><svg fill="none" viewBox="0 0 23 13" id="long-arrow-right" xmlns="http://www.w3.org/2000/svg"><path d="M16.07 4.219V1.883c0-.542.254-.914.762-1.117.508-.204.948-.119 1.32.254l4.367 4.367c.17.169.271.355.305.558a.94.94 0 010 .61c-.034.203-.135.389-.305.558l-4.367 4.367c-.372.373-.812.457-1.32.254s-.762-.575-.762-1.117V8.281H.734c-.406 0-.609-.203-.609-.61V4.829c0-.406.203-.61.61-.61H16.07z" fill="#fff"/></svg><svg viewBox="0 0 45 61" id="map-marker" xmlns="http://www.w3.org/2000/svg"><path d="M20.156 59.328a898.352 898.352 0 00-6.445-9.258c-2.344-3.437-4.024-5.86-5.04-7.265a137.337 137.337 0 01-3.515-5.157c-1.328-2.109-2.226-3.593-2.695-4.453-.39-.86-.86-1.953-1.406-3.28-.47-1.33-.782-2.462-.938-3.4A46.42 46.42 0 010 23c0-6.25 2.188-11.563 6.563-15.938S16.25.5 22.5.5s11.563 2.188 15.938 6.563C42.812 11.438 45 16.75 45 23c0 1.328-.078 2.5-.234 3.516-.078.937-.391 2.07-.938 3.398-.469 1.328-.937 2.422-1.406 3.281-.39.86-1.25 2.344-2.578 4.453a137.33 137.33 0 01-3.516 5.157 880.38 880.38 0 00-5.156 7.265 4264.888 4264.888 0 01-6.328 9.258c-.547.781-1.328 1.172-2.344 1.172-1.016 0-1.797-.39-2.344-1.172zM15.82 29.68c1.875 1.797 4.102 2.695 6.68 2.695 2.578 0 4.766-.898 6.563-2.695 1.875-1.875 2.812-4.102 2.812-6.68 0-2.578-.938-4.766-2.813-6.563-1.796-1.875-3.984-2.812-6.562-2.812-2.578 0-4.805.938-6.68 2.813-1.797 1.796-2.695 3.984-2.695 6.562 0 2.578.898 4.805 2.695 6.68z"/></svg><svg fill="none" viewBox="0 0 61 67" id="measuring-tool" xmlns="http://www.w3.org/2000/svg"><path fill-rule="evenodd" clip-rule="evenodd" d="M49.862 30.052v34.702c0 .742-.634 1.343-1.416 1.343h-7.212c-.782 0-1.417-.601-1.417-1.343V31.732c0-.742.635-1.344 1.417-1.344h1.771V12.05c0-.741.635-1.344 1.417-1.344h8.614c1.842 0 3.131-1.652 3.882-2.995h-8.246c-.782 0-1.416-.602-1.416-1.344V3.062H25.72L8.633 10.223h22.216c.782 0 1.417.602 1.417 1.343v1.237h1.714c.782 0 1.417.601 1.417 1.343 0 .741-.635 1.343-1.417 1.343h-1.714v3.252h1.714c.782 0 1.417.602 1.417 1.343 0 .742-.635 1.343-1.417 1.343h-1.714v3.252h1.714c.782 0 1.417.602 1.417 1.343 0 .742-.635 1.344-1.417 1.344h-1.714v3.022h1.175c.782 0 1.417.602 1.417 1.344v33.022c0 .741-.635 1.343-1.417 1.343h-8.147c-.782 0-1.416-.602-1.416-1.343V44.4a52.124 52.124 0 00-13.22-4.03c-7.197-1.115-9.095-6.112-9.095-8.598 0-.742.634-1.344 1.416-1.344h26.453V12.964H1.917c-.68.014-1.274-.432-1.417-1.062v-.282c.004-.53.337-1.01.85-1.222L24.855.497c.179-.077.372-.119.567-.122h23.25c.782 0 1.417.602 1.417 1.344v3.305l8.926-.094c.153-.005.307.012.455.052.75.21 1.181.955.962 1.667-.085.31-2.125 6.718-7.382 6.718h-7.183v7.846h7.906c5.667.282 6.715 7.04 6.715 7.321.01.062.012.126.012.187-.006.741-.646 1.338-1.428 1.331h-9.21zm-17.837 5.71v-2.687l-27.36-.013c.525 1.532 2.027 3.923 6.461 4.608a53.894 53.894 0 0114.849 4.742c.455.237.738.69.736 1.182v19.79h5.314V62.2H30.31c-.782 0-1.417-.602-1.417-1.343 0-.742.635-1.343 1.417-1.343h1.715v-3.252H30.31c-.782 0-1.417-.602-1.417-1.343 0-.742.635-1.344 1.417-1.344h1.715v-3.25H30.31c-.782 0-1.417-.602-1.417-1.344 0-.742.635-1.344 1.417-1.344h1.715v-3.25H30.31c-.782 0-1.417-.602-1.417-1.344 0-.742.635-1.344 1.417-1.344h1.715v-3.25H30.31c-.782 0-1.417-.603-1.417-1.344 0-.742.635-1.343 1.417-1.343h1.715zm13.813-5.373v-6.557h7.836c2.054.108 3.088 2.042 3.584 3.48h-8.827c-.782 0-1.416.602-1.416 1.344v1.679l-1.177.053zm-3.187 2.686V63.41h4.377V33.075h-4.377z" fill="#D2153D"/></svg><svg fill="none" viewBox="0 0 42 42" id="phone" xmlns="http://www.w3.org/2000/svg"><path fill-rule="evenodd" clip-rule="evenodd" d="M35.699 25.756l5.221 5.222a3.696 3.696 0 010 5.22l-1.898 1.9c-5.204 5.203-13.626 5.203-18.83 0L3.894 21.79c-5.19-5.19-5.19-13.637 0-18.828l1.903-1.886a3.695 3.695 0 015.218.004l5.22 5.203a3.69 3.69 0 01.001 5.223l-2.373 2.373a2.795 2.795 0 000 3.956L24.149 28.13a2.8 2.8 0 003.955 0l2.373-2.373a3.697 3.697 0 015.222 0zM9.274 2.822a1.233 1.233 0 00-1.741-.002l-.866.859 6.957 6.957.87-.87a1.23 1.23 0 000-1.74l-5.22-5.204zm12.66 33.535L5.634 20.05a10.82 10.82 0 01-.68-14.602l6.938 6.936a5.253 5.253 0 00.229 7.19L22.408 29.87a5.253 5.253 0 007.19.23l6.938 6.936a10.8 10.8 0 01-14.602-.679zM38.31 35.33l.87-.87c.48-.48.48-1.261 0-1.74l-5.221-5.222c-.48-.48-1.261-.48-1.741 0l-.87.87 6.962 6.962z" fill="#fff"/></svg><svg viewBox="0 0 29 34" id="play" xmlns="http://www.w3.org/2000/svg"><path d="M26.5 14.438c1.938 1.187 1.938 4 0 5.187l-22 13C2.5 33.813 0 32.375 0 30V4C0 1.437 2.688.375 4.5 1.437l22 13z"/></svg><svg fill="none" viewBox="0 0 9 10" id="plus--blue" xmlns="http://www.w3.org/2000/svg"><path d="M3.547 9.108V6.006H.313v-1.87h3.234V.924H5.46v3.212h3.234v1.87H5.46v3.102H3.547z" fill="#001ED3"/></svg><svg viewBox="0 0 23 23" id="plus--red" xmlns="http://www.w3.org/2000/svg"><path stroke="#D2153D" stroke-width="4" stroke-linecap="round" d="M11.967 2v19M2 11.8h19"/></svg><svg fill="none" viewBox="0 0 32 28" id="quote" xmlns="http://www.w3.org/2000/svg"><path d="M29 0c1.625 0 3 1.375 3 3v15c0 5.563-4.5 10-10 10h-.5c-.875 0-1.5-.625-1.5-1.5v-3c0-.813.625-1.5 1.5-1.5h.5c2.188 0 4-1.75 4-4v-4h-5c-1.688 0-3-1.313-3-3V3a3 3 0 013-3h8zM11 0c1.625 0 3 1.375 3 3v15c0 5.563-4.5 10-10 10h-.5c-.875 0-1.5-.625-1.5-1.5v-3c0-.813.625-1.5 1.5-1.5H4c2.188 0 4-1.75 4-4v-4H3c-1.688 0-3-1.313-3-3V3a3 3 0 013-3h8z" fill="#fff"/></svg><svg fill="none" viewBox="0 0 62 68" id="ruler" xmlns="http://www.w3.org/2000/svg"><path fill-rule="evenodd" clip-rule="evenodd" d="M19.883 66.178V19.452H43.1c.773 0 1.4-.6 1.4-1.339V2.181c0-.739-.627-1.339-1.4-1.339H1.9c-.773 0-1.4.6-1.4 1.34v63.996c0 .739.627 1.339 1.4 1.339h16.583c.773 0 1.4-.6 1.4-1.34zM41.7 3.52v13.254H19.057L5.272 3.52h36.429zM3.299 5.42v59.418l13.785.188v-4.419h-3.47c-.773 0-1.4-.6-1.4-1.339s.627-1.338 1.4-1.338h3.47v-2.678h-3.47c-.773 0-1.4-.6-1.4-1.339 0-.74.627-1.339 1.4-1.339h3.47v-2.678h-6.437c-.773 0-1.4-.6-1.4-1.338 0-.74.627-1.34 1.4-1.34h6.437v-2.677h-3.47c-.773 0-1.4-.6-1.4-1.339s.627-1.339 1.4-1.339h3.47v-2.677h-3.47c-.773 0-1.4-.6-1.4-1.339 0-.74.627-1.339 1.4-1.339h3.47v-2.678h-6.437c-.773 0-1.4-.6-1.4-1.339s.627-1.338 1.4-1.338h6.437v-2.678h-3.47c-.773 0-1.4-.6-1.4-1.339s.627-1.338 1.4-1.338h3.47V23.12h-3.47c-.773 0-1.4-.6-1.4-1.339 0-.74.627-1.339 1.4-1.339h3.47v-1.834L3.3 5.421z" fill="#D2153D"/><path fill-rule="evenodd" clip-rule="evenodd" d="M21.5 34.571v.014-.014zm0 .004c.004.286.102.565.28.795l9.924 13.046s.112.082.168.136a.454.454 0 01.052.062c.024.032.045.062.088.087l19.439 13.791c1.444 1.238 3.5 1.56 5.277.826a6.08 6.08 0 002.33-1.95l1.179-1.583A5.557 5.557 0 0061.5 56.51c-.058-1.66-.967-3.182-2.428-4.06L39.577 38.712a1.434 1.434 0 00-.252-.108s-.085 0-.127-.08l-15.845-5.225c-.734-.24-1.532.14-1.778.848a1.32 1.32 0 00-.075.428zm35.916 20.094a2.478 2.478 0 011.29 1.868 2.967 2.967 0 01-.729 1.678l-1.179 1.543a3.395 3.395 0 01-1.235 1.096l-.01.005c-.262.112-1.032.443-2.432-.546l-1.263-.893 2.147-2.815 2.133-2.829 1.278.893zm-4.856-.77l1.32-1.733-14.794-10.462-4.295 5.63 14.794 10.462 1.319-1.72-11.425-8.12a1.368 1.368 0 01-.14-.1 1.32 1.32 0 01-.18-1.905 1.438 1.438 0 011.976-.174l11.425 8.121zM36.518 40.484l-3.692 4.846-2.287-3.005 2.315-3.045 3.664 1.204zm-7.72-.446l1.278-1.678-3.397-1.11 2.12 2.788z" fill="#D2153D"/></svg><svg fill="none" viewBox="0 0 79 89" id="screwdrivers" xmlns="http://www.w3.org/2000/svg"><path d="M6.5 44.107v-32H4l3-8.5h5l3 8.5h-2.5v32m-6 0h6m-6 0l-4.5.5v3.5l3 1.5v4l-3 2v25l5 6h6l4-6v-25l-3-2v-4l2.5-1.5v-3.5l-4-.5m-4 13.5v23.5m0-23.5l2.5 23.5m-2.5-23.5h.625m-.625 23.5l2.5-23.5m-2.5 23.5H9m2 0v-23.5m0 23.5h-.625m.625-23.5h-.625m-.625 23.5v-23.5m0 23.5H9m.75 0h.625m-.625-23.5h-.625m.625 0h.625m-1.25 0L9 81.107m1.375 0v-23.5M36.5 44.107v-32l2.5-9.5h1l2.5 9.5v32m-6 0h6m-6 0l-4.5.5v3.5l3 1.5v4l-3 2v25l5 6h6l4-6v-25l-3-2v-4l2.5-1.5v-3.5l-4-.5m-4 13.5v23.5m0-23.5l2.5 23.5m-2.5-23.5h.625m-.625 23.5l2.5-23.5m-2.5 23.5h.5m2 0v-23.5m0 23.5h-.625m.625-23.5h-.625m-.625 23.5v-23.5m0 23.5H39m.75 0h.625m-.625-23.5h-.625m.625 0h.625m-1.25 0L39 81.107m1.375 0v-23.5M66.5 44.107v-28.5h-2v-13.5H75v13.5h-2.5v28.5m-6 0h6m-6 0l-4.5.5v3.5l3 1.5v4l-3 2v25l5 6h6l4-6v-25l-3-2v-4l2.5-1.5v-3.5l-4-.5m-4 13.5v23.5m0-23.5l2.5 23.5m-2.5-23.5h.625m-.625 23.5l2.5-23.5m-2.5 23.5h.5m2 0v-23.5m0 23.5h-.625m.625-23.5h-.625m-.625 23.5v-23.5m0 23.5H69m.75 0h.625m-.625-23.5h-.625m.625 0h.625m-1.25 0L69 81.107m1.375 0v-23.5" stroke="#D2153D" stroke-width="3"/></svg><svg fill="none" viewBox="0 0 88 87" id="tassel" xmlns="http://www.w3.org/2000/svg"><path d="M65.5 1.554H86v80.5c-.96 1.743-1.674 2.374-3.5 2.5-2.03-.354-2.639-.947-3-2.5v-10c-.389-1.025-.801-1.521-2.5-2-1.255.218-1.81.633-2.5 2v4c-.557 1.53-1.163 2.003-2.5 2.5-1.464-.607-2.198-1.05-3-2.5v-12c-2.265-.933-3.383-1.639-4-4.5l.5-25m0-33H50m15.5 0v33m-15.5-33h-3.5c-3.293 5.868-5.66 8.432-11 11.5l-18-2c-8.104 1.047-11.632 2.278-15.5 6 3.42 5.728 7.097 6.82 15.5 6.5l18-1.5c5.307 3.136 7.801 5.726 11 12.5H50m0-33v33m0 0h15.5m6.5-26.5v41.5m6-44V55.29m-1 3.764v2m0-2h2m-2 0l2 2m-2 0h2m-2 0l2-2m0 2v-2m-8-8h2m-2 0v2m0-2l2 2m0-2v2m0-2l-2 2m2 0h-2" stroke="#D2153D" stroke-width="3"/></svg><svg fill="none" viewBox="0 0 14 12" id="twitter" xmlns="http://www.w3.org/2000/svg"><path d="M12.55 2.906v.383c0 3.8-2.87 8.149-8.148 8.149-1.64 0-3.144-.465-4.402-1.286.219.028.438.055.684.055 1.34 0 2.57-.465 3.554-1.23a2.857 2.857 0 01-2.68-1.997c.192.028.356.055.547.055.247 0 .52-.055.739-.11A2.875 2.875 0 01.547 4.11v-.027c.383.219.848.328 1.312.356a2.825 2.825 0 01-1.285-2.38c0-.546.137-1.038.383-1.449a8.33 8.33 0 005.934 3.008 2.697 2.697 0 01-.082-.656A2.87 2.87 0 019.679.09c.821 0 1.56.328 2.106.902a6.063 6.063 0 001.805-.71 2.805 2.805 0 01-1.258 1.585 5.382 5.382 0 001.64-.437 6.083 6.083 0 01-1.421 1.476z" fill="#001ED3"/></svg><svg fill="none" viewBox="0 0 16 11" id="youtube" xmlns="http://www.w3.org/2000/svg"><path d="M15.012 2.168c.328 1.148.328 3.61.328 3.61s0 2.433-.328 3.609a1.824 1.824 0 01-1.313 1.312C12.523 11 7.875 11 7.875 11s-4.676 0-5.852-.3A1.824 1.824 0 01.711 9.386C.383 8.21.383 5.777.383 5.777s0-2.46.328-3.609A1.86 1.86 0 012.023.828C3.2.5 7.875.5 7.875.5s4.648 0 5.824.328a1.86 1.86 0 011.313 1.34zM6.344 7.992l3.883-2.215-3.883-2.215v4.43z" fill="#001ED3"/></svg></svg>